PathFileType	4	(X/Y/Z)	C:/Users/beibeiliu/ov580/test_trc/User2\sequence.1_training_dense_right.trc
DataRate	CameraRate	NumFrames	NumMarkers	Units	OrigDataRate	OrigDataStartFrame	OrigNumFrames
120	120	22	19	mm	120	1	200
Frame#	Time	ThumbCMC			ThumbMCP			ThumbIP			ThumbTip			IndexMCP			IndexPIP			IndexTip			MiddleMCP			MiddlePIP			MiddleTip			RingMCP			RingPIP			RingTip			PinkyMCP			PinkyPIP			PinkyTip			BackHand1			BackHand2			BackHand3	
		X0	Y0	Z0	X1	Y1	Z1	X2	Y2	Z2	X3	Y3	Z3	X4	Y4	Z4	X5	Y5	Z5	X6	Y6	Z6	X7	Y7	Z7	X8	Y8	Z8	X9	Y9	Z9	X10	Y10	Z10	X11	Y11	Z11	X12	Y12	Z12	X13	Y13	Z13	X14	Y14	Z14	X15	Y15	Z15	X16	Y16	Z16	X17	Y17	Z17	X18	Y18	Z18	
0	0	135.526	52.4767	12.9171	147.961	71.8243	-13.3425	148.681	87.444	-44.7787	145.224	99.3878	-66.138	104.457	33.1322	-64.2964	93.7682	36.2845	-94.608	85.8336	41.5371	-118.007	76.9256	15.9455	-62.7231	63.2537	19.4621	-91.7777	41.9536	22.3748	-117.481	57.5289	10.4899	-49.9174	41.3991	9.50646	-72.7984	23.3496	8.91692	-96.7804	41.0548	10.0141	-25.8299	20.3172	6.46892	-41.6283	3.60901	0.73228	-55.2947	85.2452	5.67556	-1.24903	100.905	-0.844763	29.1731	122.028	18.5127	3.89018	
1	0.00833333	138.687	57.792	7.7454	145.64	76.1154	-10.7022	146.849	92.8088	-44.9327	146.59	108.156	-63.6253	112.064	35.4784	-65.7601	105.051	37.5955	-96.7732	89.9722	40.1924	-121.852	90.4075	16.5922	-65.7747	73.2124	16.5782	-98.5032	54.0961	15.9739	-123.233	70.031	6.33401	-56.5024	52.3695	0.790385	-72.4424	38.6403	0.799514	-101.977	52.1532	3.51824	-29.6908	31.4732	-3.98011	-47.3379	17.1894	-9.72094	-66.17	95.0613	4.63793	-3.61705	109.365	-0.0617017	27.0778	129.702	21.3091	-0.357069	
2	0.0166667	141.36	64.2077	13.8368	143.954	82.862	-11.2425	145.331	101.743	-42.1499	139.933	113.202	-62.1602	118.609	38.6335	-66.7999	114.014	41.9848	-93.9772	99.5011	41.1766	-119.803	98.7411	16.0947	-72.1502	85.1986	15.0331	-100.258	66.0569	11.5542	-126.994	80.2984	1.66583	-56.6734	68.2389	-1.70785	-77.3051	52.757	-5.89773	-104.175	63.8749	-4.08228	-34.5551	45.4809	-11.1931	-49.6498	34.22	-19.5108	-67.6787	104.06	3.43872	-6.20412	116.178	-1.68531	23.7551	135.699	24.1369	1.49771	
3	0.025	140.504	69.0165	11.9037	143.384	90.1312	-7.3973	140.103	106.636	-41.6068	134.352	120.201	-61.7693	125.486	43.0307	-65.8004	117.473	44.2229	-98.0737	104.498	41.1431	-121.555	106.282	13.0906	-69.9432	92.5997	10.3962	-101.329	76.5599	6.63295	-126.393	92.0238	-0.766809	-60.8768	78.6305	-8.01571	-82.9372	66.7227	-10.6857	-108.146	74.9584	-8.53551	-36.3253	59.4447	-16.6447	-52.386	46.4036	-30.117	-74.3341	115.361	4.58465	-7.99789	123.511	2.08604	26.0668	140.929	31.5739	-1.78556	
4	0.0333333	137.281	73.5129	12.3035	135.965	93.6328	-6.16826	132.335	111.478	-38.0311	123.959	122.671	-60.3206	127.688	44.3349	-68.4314	123.13	47.2519	-94.691	109.535	42.7213	-120.429	117.49	18.7135	-68.4544	102.889	12.5506	-102.55	91.0213	7.27588	-127.383	102.588	0.300846	-57.5448	91.6196	-7.89205	-86.3683	80.9071	-15.084	-112.001	85.1787	-12.8184	-35.4324	71.689	-25.4437	-59.4825	61.0103	-36.5565	-78.6868	121.934	5.83257	-4.62915	129.981	0.679556	26.4018	141.468	31.8522	4.13909	
5	0.0416667	127.723	77.8904	14.1388	123.493	96.7237	-3.46583	117.405	114.643	-30.4813	109.3	125.045	-53.8816	128.839	53.9578	-65.7375	122.599	49.5673	-94.6828	115.17	52.8106	-123.421	123.806	21.0377	-67.561	114.223	13.656	-99.0172	104.148	9.74034	-126.888	113.79	1.84408	-61.9201	105.918	-9.50723	-83.9442	97.5566	-12.0632	-110.96	97.7551	-18.055	-40.0421	89.477	-26.7256	-60.1683	80.7845	-43.6829	-83.2425	126.665	5.44979	-6.26262	135.218	8.12211	24.3626	141.386	39.0351	2.39083	
6	0.05	118.164	79.5218	17.8554	114.114	104.137	1.09573	106.018	121.794	-30.4526	95.539	130.814	-50.5816	126.794	59.7847	-63.7828	122.772	62.0166	-93.7478	115.117	54.6413	-119.835	128.172	30.5283	-68.3971	120.094	22.8684	-98.9681	111.454	14.978	-128.518	120.835	3.01171	-60.9285	115.026	-5.61536	-84.3445	108.612	-11.1281	-110.923	108.477	-12.7615	-39.7317	100.032	-29.7532	-62.2794	96.085	-42.5574	-85.8507	133.338	14.7009	-2.9926	138.486	16.7135	27.7561	139.202	48.7644	5.28824	
7	0.0583333	108.904	82.304	25.1499	101.81	105.241	4.43973	91.765	121.587	-25.3501	81.7689	130.501	-48.3675	123.393	68.0604	-61.7425	118.52	65.1533	-92.5669	113.17	63.1973	-120.448	128.038	35.3369	-68.1911	122.25	29.7514	-99.1678	116.205	18.8446	-131.263	124.884	8.2469	-60.9784	121.629	-0.698279	-85.2314	117.701	-2.01717	-111.633	116.351	-9.15882	-38.8535	111.539	-21.9245	-61.3586	111.887	-37.7769	-84.3834	136.255	21.023	-6.00616	140.18	21.6831	31.1724	135.906	57.2178	10.8326	
8	0.0666667	100.289	79.6666	22.3719	89.0666	104.072	7.8815	77.7883	117.639	-20.2838	65.9191	127.49	-42.3438	117.215	70.3003	-60.4874	114.201	71.8362	-88.6904	109.877	67.4514	-113.521	127.905	40.6363	-65.1693	122.859	34.3371	-99.7548	119.296	28.5747	-124.575	128.434	18.0106	-56.8275	126.054	9.31358	-82.5552	124.257	2.44278	-113.943	122.448	-6.98857	-40.2507	119.297	-17.5564	-64.8329	121.259	-32.5247	-82.5813	137.187	21.9383	-2.91305	139.659	22.8783	29.5339	130.187	57.5549	13.9513	
9	0.075	92.0755	80.3145	29.4488	77.4279	101.39	9.44681	64.9588	115.252	-17.8938	53.2144	123.317	-41.4106	112.096	70.9505	-58.2623	106.568	75.7097	-83.1276	102.646	70.6138	-114.354	124.884	47.8009	-66.3298	121.816	39.4409	-97.9639	119.924	34.5268	-124.195	128.956	21.1849	-55.4309	127.696	14.9421	-81.4984	126.962	9.38825	-111.332	125.994	-5.7335	-39.024	125.157	-14.7072	-63.15	130.046	-23.2004	-84.8648	131.74	29.5779	0.866669	137.388	26.4727	29.787	127.025	59.0845	16.4913	
10	0.0833333	86.8472	76.2136	26.7621	69.3392	99.9324	8.68549	53.0939	112.765	-18.3867	41.9096	116.368	-41.5505	105.456	73.6121	-53.4598	100.499	76.3934	-86.0456	99.7266	69.777	-110.72	121.875	46.8671	-64.208	121.573	39.7527	-93.1951	118.819	34.0175	-123.612	128.798	21.4193	-58.031	128.894	16.0443	-81.2502	128.759	11.6674	-110.024	127.097	-4.35868	-38.4274	128.065	-11.8341	-62.7092	135.658	-21.1462	-87.2005	130.203	31.1587	3.15223	136.482	30.4334	34.3896	119.741	59.9957	17.4834	
11	0.0916667	79.0442	73.4783	31.2763	63.0961	90.4715	10.7218	44.9919	105.985	-20.8569	31.7489	111.13	-42.7026	98.6863	74.9372	-55.4422	96.7713	75.3274	-84.9131	93.0945	72.836	-113.235	117.75	51.2121	-60.958	119.333	43.7406	-94.9945	117.245	40.1851	-124.784	128.284	24.8726	-57.2804	129.676	18.0366	-80.9329	130.09	15.9512	-112.335	128.497	2.42112	-42.8105	133.64	-9.67537	-65.461	140.443	-18.0285	-86.0065	129.745	31.0355	-2.16591	133.24	32.0802	32.5284	113.104	63.8282	13.5717	
12	0.1	70.9262	70.3174	30.6078	53.4294	84.3432	10.622	35.0435	95.4155	-15.6596	22.4474	99.9491	-38.6297	92.8608	75.6584	-56.8086	90.924	74.9969	-84.0611	86.0719	75.702	-108.379	114.746	54.1125	-65.4706	117.237	45.6688	-97.085	117.052	42.519	-124.796	127.246	29.5509	-58.5427	132.31	22.2012	-84.1877	132.47	24.6621	-112.07	132.888	4.67991	-41.5396	137.385	-1.78251	-65.1196	145.7	-7.09431	-87.7991	127.998	35.3166	-0.630732	129.859	33.0913	31.6614	108.967	63.683	17.7241	
13	0.108333	63.3205	56.5175	27.2832	40.1204	69.9407	9.70581	23.9626	78.0052	-18.1779	9.16788	80.5733	-38.1887	85.8094	69.7895	-52.3476	83.7697	73.6931	-81.8053	79.9005	75.1513	-112.175	113.008	54.7528	-58.6029	114.895	54.3435	-91.087	117.231	52.6653	-125.565	129.507	35.1009	-57.0082	130.289	36.9251	-80.5639	136.433	35.974	-106.603	136.834	10.9495	-36.9256	146.105	7.77083	-65.1812	152.825	8.83399	-84.5969	123.306	36.8443	3.73574	126.43	35.1525	31.963	98.9836	61.3841	19.6269	
14	0.116667	52.3147	43.7311	27.0621	26.7524	52.3261	10.8011	11.4306	57.812	-19.182	-2.03691	60.5232	-44.7631	73.4419	68.0487	-53.7699	72.7898	69.985	-82.4637	68.6377	72.2558	-107.773	101.357	59.6698	-57.9705	108.675	60.2835	-87.6116	110.926	62.8726	-121.555	126.457	42.1258	-52.2401	131.776	46.9972	-79.9718	134.96	51.4176	-107.956	136.59	19.8677	-35.4187	150.701	20.0938	-57.8769	160.452	25.6121	-83.8134	120.601	36.8423	3.74545	118.739	37.421	35.8062	88.262	54.7149	17.0435	
15	0.125	44.2105	36.5012	26.7122	21.5973	39.6695	8.58037	2.56233	44.1103	-19.5343	-8.82316	43.2474	-42.1113	63.6263	61.5905	-52.7103	60.4559	64.4698	-82.2258	58.1688	66.4813	-107.877	94.5437	57.3513	-59.3737	96.7153	61.7077	-90.7969	101.132	64.8368	-118.476	116.068	45.7226	-52.0868	127.391	47.7936	-73.4633	131.101	54.9212	-103.714	133.737	22.7758	-34.2641	146.372	25.3174	-56.7028	156.486	33.2661	-79.068	115.9	37.1286	5.70066	116.115	36.7827	34.4191	80.3113	49.507	20.642	
16	0.133333	41.8221	29.1643	27.2442	14.6752	33.7681	8.18184	-0.977129	35.6394	-23.0719	-15.0987	33.5088	-44.4244	56.6047	54.5465	-54.3516	51.6983	56.7102	-81.2623	54.031	56.8646	-110.867	86.7558	52.5597	-56.4115	89.7182	55.2299	-88.3248	98.367	56.9681	-117.779	109.443	39.916	-48.1988	118.452	44.8329	-77.1599	122.823	52.184	-104.752	128.316	19.5385	-31.4398	140.309	24.4421	-59.4216	151.151	32.1978	-79.8256	108.231	35.7586	6.21778	110.127	35.384	37.9343	75.0421	45.3795	21.1092	
17	0.141667	35.7585	28.9315	26.8654	13.7939	29.2229	5.49292	-7.90493	29.8376	-19.0402	-19.491	26.9569	-40.2654	54.7322	47.484	-55.9762	50.4993	48.0266	-82.7017	49.0422	46.7925	-108.928	85.5133	46.0027	-60.2074	88.2187	48.1588	-92.3345	90.2607	51.042	-120.841	105.55	36.3294	-51.9835	116.967	37.9365	-79.3255	117.282	43.6939	-103.883	124.251	17.9594	-35.2616	137.736	19.3851	-59.1883	150.85	25.0695	-75.8598	105.805	33.2875	5.49411	106.063	34.3375	39.3688	68.387	44.2115	20.3299	
18	0.15	32.1794	28.6565	31.9377	10.7427	29.2183	7.18332	-10.8287	27.8661	-17.37	-24.0614	25.2261	-40.0085	49.4316	43.1952	-53.2154	47.5907	42.238	-79.9159	48.2775	40.4879	-111.256	80.8855	42.5558	-61.3367	86.8498	40.3582	-88.2732	92.9131	40.4554	-121.831	107.897	28.8205	-48.278	112.879	31.0599	-74.5167	116.977	34.53	-105.04	121.638	12.159	-31.0467	135.325	13.7476	-58.8043	147.002	15.3674	-75.1647	99.798	32.2182	3.8875	100.629	32.3305	36.9707	69.7115	43.5333	19.4322	
19	0.158333	32.0902	31.1049	29.7843	12.3188	30.5674	7.65063	-8.58222	28.8234	-15.3895	-25.1245	26.1617	-37.6063	48.7936	39.4366	-50.9425	44.1843	38.4116	-80.3858	40.6628	35.5394	-106.871	83.8651	35.2531	-61.3367	84.7426	32.6848	-91.3019	88.367	31.4674	-123.024	105.754	24.2741	-53.3235	109.044	24.4594	-77.7873	115.173	24.4279	-108.192	117.884	6.81885	-31.1586	132.268	4.73347	-55.5781	142.857	8.90492	-80.0087	98.7959	30.8818	1.75451	102.845	33.2691	34.0481	70.2476	43.4687	21.1201	
20	0.166667	35.5225	33.3405	29.3235	11.8645	35.425	14.2338	-14.1906	36.6935	-12.2874	-23.5992	31.015	-34.6461	51.1991	36.9609	-53.1088	40.7689	35.7716	-79.6433	37.3609	30.0513	-106.676	78.0682	31.844	-58.1491	81.2494	25.8498	-88.5572	80.9837	22.0798	-123.875	101.602	18.2389	-53.6689	105.579	14.6628	-79.9056	112.545	10.6653	-104.365	119.78	-0.934556	-31.9029	129.25	-7.01341	-53.5788	141.377	-7.84193	-76.8436	103.872	26.7249	6.10019	106.233	32.2547	36.2716	67.2704	45.0018	15.7226	
21	0.175	35.8395	40.7355	30.3415	13.1081	41.9496	11.7503	-13.6207	45.708	-11.2338	-27.3286	40.3421	-28.6555	47.9133	36.8676	-55.9053	39.6435	34.9447	-77.3651	33.7238	26.5739	-109.3	77.0566	25.84	-61.265	73.5839	19.1581	-92.6833	76.4628	11.2221	-122.027	100.296	9.34568	-54.7855	101.426	3.50076	-76.057	105.784	-1.56475	-104.416	115.105	-8.17434	-34.5947	121.189	-16.7954	-56.5584	131.454	-21.1371	-78.3655	98.8205	26.2198	5.26848	105.306	29.6839	34.9656	74.1952	45.0799	18.1746	
